<svg xmlns="http://www.w3.org/2000/svg"  viewBox="0 0 100 100" width="100px" height="100px" baseProfile="basic"><circle cx="50" cy="49.957" r="31.5" fill="#fefdef"/><path fill="#39c1d7" d="M85,49.957c0,19.33-15.67,35-35,35c-0.58,0-1.16-0.01-1.73-0.05c-0.96-0.04-1.9-0.12-2.84-0.24	l3.24-3.24c0.44,0.02,0.88,0.03,1.33,0.03c0.59,0,1.19-0.02,1.77-0.05c15.99-0.89,28.79-13.69,29.68-29.68	c0.03-0.58,0.05-1.18,0.05-1.77c0-0.45-0.01-0.89-0.03-1.33l3.24-3.24c0.12,0.94,0.2,1.88,0.24,2.84	C84.99,48.796,85,49.377,85,49.957z"/><path fill="#31c4f3" d="M51.77,81.407l-3.5,3.5c-0.96-0.04-1.9-0.12-2.84-0.24c-3.36-0.44-6.57-1.36-9.56-2.68	c-0.7-0.31-1.39-0.64-2.07-1.01l2.59-2.59c0.7,0.33,1.42,0.64,2.15,0.93c3.16,1.23,6.57,1.96,10.13,2.11	c0.44,0.02,0.88,0.03,1.33,0.03C50.59,81.457,51.19,81.437,51.77,81.407z"/><path fill="#31c4f3" d="M62.5,52.277l2.99-2.99v3.08l-0.01,8.86c0,1.53-1.72,3.96-4.23,4.69c-1.44,0.43-3.54,0.58-4.57,0.35	c-0.69-0.15-1.23-0.41-1.77-0.82c-0.09-0.09-0.19-0.18-0.29-0.27c-0.36-0.35-0.64-0.7-0.87-1.07c-0.45-0.72-0.66-1.5-0.66-2.4	c0-0.01,0-0.01,0-0.02l9.41-6.53V52.277z"/><path fill="#31c4f3" d="M81.45,51.726c0.03-0.58,0.05-1.18,0.05-1.77c0-0.45-0.01-0.89-0.03-1.33	c-0.15-3.56-0.88-6.97-2.11-10.13c-0.29-0.73-0.6-1.45-0.93-2.15l2.59-2.59c0.37,0.68,0.7,1.37,1.01,2.07	c1.32,2.99,2.24,6.2,2.68,9.56c0.12,0.94,0.2,1.88,0.24,2.84L81.45,51.726z"/><path fill="#c26dab" d="M38.54,79.317l-2.67,2.67c-0.7-0.31-1.39-0.64-2.07-1.01c-1.37-0.71-2.69-1.51-3.95-2.41	c-0.6-0.41-1.19-0.85-1.76-1.32l2.48-2.48c0.58,0.45,1.17,0.88,1.78,1.3c1.28,0.86,2.63,1.64,4.04,2.32	C37.09,78.717,37.81,79.027,38.54,79.317z"/><path fill="#c26dab" d="M35.01,70.327l8.48-8.48l-0.01,3.09v0.29c0,1.53-1.72,3.96-4.23,4.69c-0.3,0.09-0.64,0.17-0.98,0.23	C37.13,70.366,35.85,70.437,35.01,70.327z"/><path fill="#c26dab" d="M62.5,42.837l3.01-3.01c0,0.99-0.01,2.02-0.01,3.09v1.9l-0.01,4.47v3.08l-11.74,11.74	c-0.45-0.72-0.66-1.5-0.66-2.4c0-0.01,0-0.01,0-0.02c0-0.75,0.14-1.33,0.51-2.08c0.52-1.08,1.18-1.74,2.41-2.33	c0.64-0.31,1.23-0.52,2.26-0.77l4.13-1.15l0.1-3.08V42.837z"/><path fill="#c26dab" d="M82.03,35.827l-2.67,2.67c-0.29-0.73-0.6-1.45-0.93-2.15c-0.68-1.41-1.46-2.76-2.32-4.04	c-0.42-0.61-0.85-1.2-1.3-1.78l2.48-2.48c0.47,0.57,0.91,1.16,1.32,1.76c0.9,1.26,1.7,2.58,2.41,3.95	C81.39,34.437,81.72,35.127,82.03,35.827z"/><path fill="#cf82b6" d="M32.35,76.067l-2.5,2.5c-0.6-0.41-1.19-0.85-1.76-1.32c-1.71-1.37-3.3-2.91-4.72-4.58	c-0.48-0.56-0.93-1.12-1.37-1.71l2.5-2.5c0.43,0.6,0.88,1.17,1.35,1.73c1.41,1.68,2.99,3.21,4.72,4.58	C31.15,75.217,31.74,75.647,32.35,76.067z"/><path fill="#cf82b6" d="M40.5,52.457l3.01-3.01l-0.01,3.09l-0.01,9.31l-0.01,3.09l-5.21,5.21c-1.14,0.22-2.42,0.29-3.26,0.18	c-0.12-0.02-0.23-0.04-0.33-0.06c-0.69-0.15-1.23-0.41-1.77-0.82c-0.09-0.09-0.19-0.18-0.29-0.27c-1.06-1.04-1.53-2.11-1.53-3.47	c0-0.3,0.02-0.57,0.07-0.83c0.07-0.41,0.21-0.81,0.44-1.27c0.52-1.08,1.18-1.74,2.41-2.33c0.39-0.19,0.77-0.35,1.24-0.49	c0.71-0.22,1.63-0.44,3.15-0.75c0.61-0.12,1.06-0.24,1.38-0.33c0.43-0.12,0.72-0.51,0.72-0.96V52.457z"/><path fill="#cf82b6" d="M65.49,30.547c0.02,2.47,0.02,5.61,0.02,9.28c0,0.99-0.01,2.02-0.01,3.09l-3,3v-6.79	c0-0.63-0.58-1.11-1.19-0.99l-4.25,0.84l-3.85,0.77l11.57-11.57c0.43,0.36,0.71,0.9,0.71,1.52V30.547z"/><path fill="#cf82b6" d="M78.61,29.806l-2.5,2.5c-0.42-0.61-0.85-1.2-1.3-1.78c-1.37-1.73-2.9-3.31-4.58-4.72	c-0.56-0.47-1.13-0.92-1.73-1.35l2.5-2.5c0.59,0.44,1.15,0.89,1.71,1.37c1.67,1.42,3.21,3.01,4.58,4.72	C77.76,28.616,78.2,29.207,78.61,29.806z"/><path fill="#ef6388" d="M25.85,70.187l-2.48,2.48c-0.48-0.56-0.93-1.12-1.37-1.71c-1.35-1.79-2.53-3.72-3.52-5.76	c-0.33-0.7-0.65-1.41-0.94-2.14l2.71-2.71c0.26,0.75,0.55,1.49,0.87,2.21c0.91,2.1,2.05,4.07,3.38,5.9	C24.93,69.056,25.38,69.627,25.85,70.187z"/><path fill="#ef6388" d="M34.01,61.277c0.39-0.19,0.77-0.35,1.24-0.49l-4.09,4.09c0.07-0.41,0.21-0.81,0.44-1.27	C32.12,62.527,32.78,61.866,34.01,61.277z"/><path fill="#ef6388" d="M64.78,28.176c0.43,0.36,0.71,0.9,0.71,1.52v0.85l-8.43,8.43l-3.85,0.77l-8.89,1.76	c-0.47,0.09-0.8,0.5-0.8,0.98l-0.01,6.96l-0.01,3.09l-3,3v-15.44l9.8-9.8l3.85-0.77l8.95-1.78	C63.73,27.627,64.34,27.806,64.78,28.176z"/><path fill="#ef6388" d="M72.71,23.327l-2.48,2.48c-0.56-0.47-1.13-0.92-1.73-1.35c-1.83-1.33-3.8-2.47-5.9-3.38	c-0.72-0.32-1.46-0.61-2.21-0.87l2.71-2.71c0.73,0.29,1.44,0.61,2.14,0.94c2.04,0.99,3.97,2.17,5.76,3.52	C71.59,22.397,72.15,22.847,72.71,23.327z"/><path fill="#ee4267" d="M21.12,62.556l-2.64,2.64c-0.33-0.7-0.65-1.41-0.94-2.14c-1.09-2.69-1.86-5.55-2.25-8.53	c-0.12-0.94-0.2-1.88-0.24-2.84l3.5-3.5c-0.03,0.58-0.05,1.18-0.05,1.77c0,0.45,0.01,0.89,0.03,1.33c0.13,3.16,0.73,6.21,1.72,9.06	C20.51,61.097,20.8,61.837,21.12,62.556z"/><path fill="#ee4267" d="M50.3,30.297l3.85-0.77L40.5,43.176v-9.29c0-0.95,0.67-1.77,1.61-1.96L50.3,30.297z"/><path fill="#ee4267" d="M65.24,18.437l-2.64,2.64c-0.72-0.32-1.46-0.61-2.21-0.87c-2.85-0.99-5.9-1.59-9.06-1.72	c-0.44-0.02-0.88-0.03-1.33-0.03c-0.59,0-1.19,0.02-1.77,0.05l3.5-3.5c0.96,0.04,1.9,0.12,2.84,0.24c2.98,0.39,5.84,1.16,8.53,2.25	C63.83,17.787,64.54,18.107,65.24,18.437z"/><path fill="#e85654" d="M54.57,15.247l-3.24,3.24c-0.44-0.02-0.88-0.03-1.33-0.03c-0.59,0-1.19,0.02-1.77,0.05	c-15.99,0.89-28.79,13.69-29.68,29.68c-0.03,0.58-0.05,1.18-0.05,1.77c0,0.45,0.01,0.89,0.03,1.33l-3.24,3.24	c-0.12-0.94-0.2-1.88-0.24-2.84c-0.04-0.57-0.05-1.15-0.05-1.73c0-19.33,15.67-35,35-35c0.58,0,1.16,0.01,1.73,0.05	C52.69,15.047,53.63,15.127,54.57,15.247z"/><path fill="#1f212b" d="M35.916,70.872c-0.52,0-0.987-0.038-1.345-0.118c-0.749-0.167-1.354-0.447-1.963-0.909	c-0.135-0.129-0.228-0.212-0.321-0.296c-1.179-1.155-1.697-2.335-1.697-3.842c0-0.831,0.157-1.48,0.56-2.317	c0.576-1.196,1.342-1.939,2.644-2.564c1.032-0.494,1.958-0.757,4.506-1.279c0.596-0.118,1.034-0.234,1.345-0.322	C39.857,59.166,40,58.973,40,58.747V33.888c0-1.189,0.846-2.22,2.012-2.452l20.995-4.178l0,0c0.738-0.147,1.493,0.042,2.074,0.516	c0.578,0.473,0.911,1.172,0.914,1.92c0.015,3.574,0.013,8.797,0.005,15.122l-0.02,16.41c0,1.81-1.963,4.405-4.59,5.169	c-1.487,0.445-3.695,0.61-4.818,0.358c-0.749-0.167-1.354-0.447-1.963-0.909c-0.128-0.122-0.212-0.197-0.296-0.274	c-1.204-1.178-1.722-2.358-1.722-3.865c0-0.831,0.157-1.48,0.56-2.317c0.576-1.196,1.342-1.939,2.644-2.564	c1.032-0.494,1.958-0.757,4.506-1.279c0.596-0.118,1.034-0.234,1.345-0.322C61.857,55.166,62,54.973,62,54.747V39.122	c0-0.15-0.066-0.291-0.183-0.386c-0.116-0.095-0.265-0.132-0.415-0.104l-16.983,3.364c-0.233,0.046-0.403,0.252-0.403,0.489	L43.98,65.228c0,1.809-1.963,4.405-4.59,5.169C38.376,70.699,37.028,70.872,35.916,70.872z M63.202,28.239l-20.995,4.178	C41.508,32.556,41,33.175,41,33.888v24.858c0,0.679-0.436,1.258-1.084,1.441c-0.33,0.092-0.792,0.216-1.419,0.339	c-2.449,0.501-3.328,0.748-4.271,1.2c-1.105,0.531-1.695,1.099-2.175,2.096c-0.336,0.698-0.461,1.208-0.461,1.883	c0,1.233,0.413,2.164,1.38,3.113c0.092,0.083,0.198,0.178,0.293,0.274c0.444,0.331,0.916,0.549,1.525,0.686	c0.967,0.213,2.985,0.056,4.318-0.341c2.366-0.688,3.873-2.953,3.873-4.211l0.037-22.743c0.001-0.713,0.509-1.331,1.209-1.469	l16.983-3.364c0.441-0.089,0.895,0.025,1.244,0.312C62.8,38.249,63,38.671,63,39.122v15.625c0,0.679-0.436,1.258-1.084,1.441	c-0.33,0.092-0.792,0.216-1.419,0.339c-2.449,0.501-3.328,0.748-4.271,1.2c-1.105,0.531-1.695,1.099-2.175,2.096	c-0.336,0.698-0.461,1.208-0.461,1.883c0,1.233,0.413,2.164,1.38,3.113c0.109,0.099,0.206,0.186,0.293,0.274	c0.444,0.331,0.916,0.549,1.525,0.686c0.967,0.214,2.985,0.057,4.318-0.341c2.366-0.688,3.873-2.953,3.873-4.211L65,44.816	c0.008-6.323,0.01-11.544-0.005-15.117c-0.002-0.448-0.201-0.867-0.547-1.149C64.1,28.265,63.646,28.151,63.202,28.239	L63.202,28.239z"/><path fill="#1f212b" d="M50,85.957c-19.851,0-36-16.149-36-36s16.149-36,36-36s36,16.149,36,36S69.851,85.957,50,85.957z M50,15.957c-18.748,0-34,15.252-34,34s15.252,34,34,34s34-15.252,34-34S68.748,15.957,50,15.957z"/><path fill="#1f212b" d="M50,81.957c-17.645,0-32-14.355-32-32s14.355-32,32-32s32,14.355,32,32S67.645,81.957,50,81.957z M50,18.957c-17.093,0-31,13.907-31,31s13.907,31,31,31s31-13.907,31-31S67.093,18.957,50,18.957z"/><path fill="#1f212b" d="M25.209,36.386c-0.084,0-0.169-0.021-0.247-0.065c-0.24-0.137-0.324-0.442-0.188-0.682	c1.258-2.211,2.805-4.252,4.597-6.066c0.194-0.196,0.51-0.199,0.707-0.004c0.196,0.194,0.198,0.51,0.004,0.707	c-1.73,1.751-3.224,3.722-4.439,5.857C25.552,36.295,25.383,36.386,25.209,36.386z"/><path fill="#1f212b" d="M63.515,75.549c-0.178,0-0.351-0.095-0.441-0.263c-0.131-0.243-0.04-0.546,0.204-0.677	c1.738-0.935,3.38-2.056,4.881-3.332c0.209-0.178,0.526-0.154,0.705,0.057c0.179,0.21,0.153,0.526-0.057,0.705	c-1.555,1.322-3.255,2.482-5.055,3.451C63.676,75.53,63.595,75.549,63.515,75.549z"/><path fill="#1f212b" d="M32.565,27.91c-0.149,0-0.297-0.066-0.396-0.194c-0.169-0.218-0.129-0.532,0.089-0.702	c5.118-3.963,11.252-6.058,17.741-6.058l0.52,0.004c0.276,0.005,0.496,0.232,0.491,0.509c-0.005,0.276-0.239,0.517-0.509,0.491	L50,21.957c-6.265,0-12.188,2.022-17.129,5.849C32.78,27.875,32.672,27.91,32.565,27.91z"/><path fill="#1f212b" d="M70.791,69.95c-0.123,0-0.245-0.045-0.342-0.135c-0.202-0.188-0.212-0.505-0.023-0.707l0.083-0.09	c3.307-3.558,5.638-7.921,6.744-12.619c0.063-0.269,0.332-0.435,0.602-0.372c0.269,0.063,0.435,0.333,0.372,0.602	c-1.146,4.866-3.561,9.385-6.984,13.069l-0.088,0.094C71.058,69.896,70.924,69.95,70.791,69.95z"/></svg>